<?xml version="1.0" standalone="no"?><!DOCTYPE svg PUBLIC "-//W3C//DTD SVG 1.1//EN" "http://www.w3.org/Graphics/SVG/1.1/DTD/svg11.dtd"><svg t="1599709278046" class="icon" viewBox="0 0 1024 1024" version="1.1" xmlns="http://www.w3.org/2000/svg" p-id="3688" xmlns:xlink="http://www.w3.org/1999/xlink" width="32" height="32"><defs><style type="text/css"></style></defs><path d="M512 0a512 512 0 1 0 512 512 512 512 0 0 0-512-512z m211.2 713.152a29.696 29.696 0 0 1-40.512 0l-161.28-161.024-161.088 161.024A28.672 28.672 0 1 1 320 672.64l160.832-161.088-160.384-160.384a28.672 28.672 0 1 1 40.512-40.512L521.408 471.04l160.448-160.448a28.672 28.672 0 1 1 40.512 40.512L561.92 511.552l161.28 161.088a29.696 29.696 0 0 1 0 40.512z" fill="#CCCCCC" p-id="3689"></path></svg>